<svg width="197" height="111" viewBox="0 0 197 111" fill="none" xmlns="http://www.w3.org/2000/svg">
<g id="logo" clip-path="url(#clip0_74_5375)">
<g id="Vector">
<path d="M14.0201 25.918V33.0123L21.0261 44.8417V59.0054L46.7339 73.1857L56.0725 68.4589L14.0201 25.918ZM30.3729 51.9111V47.1843L37.3871 54.2953L30.3729 51.9111Z" fill="#006438"/>
<path d="M57.8446 77.9125L35.0463 100.971L7.00586 72.6188L18.6852 61.3646L32.7055 70.8265L35.0463 89.7253L37.3789 73.1857L57.8446 77.9125Z" fill="#006438"/>
<path d="M14.0201 42.4658L9.34668 68.4589L18.6935 56.6462V44.8334L14.0201 42.4658Z" fill="#006438"/>
</g>
<path id="Vector_2" d="M44.047 16.4727L51.0612 23.567H63.0868V72.6104L54.1851 81.6138L35.0464 100.971L7.00598 72.6104V23.567H18.6936V16.4727H0V75.5532L17.7705 93.5266L35.0464 111L59.1387 86.6323L70.0928 75.5532V16.4727H44.047Z" fill="#FCC900"/>
<g id="Vector_3">
<path d="M32.714 24.3675V40.0984L39.72 47.1844V7.0193L32.7057 0V24.3675H32.714Z" fill="#B91230"/>
<path d="M30.3732 11.7461L23.3672 4.72677V30.6532L30.3732 37.7308V11.7461Z" fill="#B91230"/>
<path d="M42.0608 21.1163V49.5436L49.0668 44.8252V28.2856L42.0608 21.1163Z" fill="#B91230"/>
</g>
<g id="Vector_4">
<path d="M84.0963 46.6457L85.8272 43.1611L80.412 32.4987H83.7254L87.4839 39.8682L91.1518 32.4987H94.3663L87.3108 46.6457H84.0963Z" fill="#006438"/>
<path d="M94.9515 46.6457V32.4987H97.8116V39.5931L103.012 32.4987H106.342L101.1 39.6514L106.952 46.6457H103.367L97.8116 39.9932V46.6457H94.9515Z" fill="#006438"/>
<path d="M107.48 46.6457V32.4987H111.947C113.324 32.4987 114.469 32.9489 115.384 33.8492C116.299 34.7496 116.752 35.8667 116.752 37.2005C116.752 38.5343 116.299 39.6431 115.384 40.5434C114.469 41.4438 113.324 41.8939 111.947 41.8939H110.332V46.6374H107.472L107.48 46.6457ZM110.34 39.2096H111.914C112.532 39.2096 113.027 39.0179 113.398 38.6344C113.769 38.2509 113.958 37.7674 113.958 37.2005C113.958 36.6336 113.769 36.1584 113.398 35.775C113.027 35.3915 112.524 35.2081 111.914 35.2081H110.34V39.2096Z" fill="#006438"/>
<path d="M114.865 46.6457L121.739 32.3403L128.613 46.6457H125.596L124.434 44.1364H119.036L117.873 46.6457H114.857H114.865ZM120.165 41.7439H123.313L121.739 38.3593L120.165 41.7439Z" fill="#006438"/>
<path d="M129.388 30.8064C129.091 31.0982 128.745 31.2483 128.333 31.2483C127.921 31.2483 127.575 31.1065 127.278 30.8064C126.981 30.5147 126.833 30.1562 126.833 29.731C126.833 29.3059 126.981 28.9641 127.27 28.6723C127.558 28.3805 127.913 28.2305 128.333 28.2305C128.753 28.2305 129.108 28.3805 129.396 28.6723C129.685 28.9641 129.833 29.3142 129.833 29.731C129.833 30.1479 129.685 30.5147 129.388 30.8064ZM129.165 46.6457V32.4987H132.025V46.6457H129.165ZM133.921 30.8064C133.625 31.0982 133.27 31.2483 132.866 31.2483C132.462 31.2483 132.108 31.1065 131.811 30.8064C131.514 30.5147 131.366 30.1562 131.366 29.731C131.366 29.3059 131.506 28.9641 131.803 28.6723C132.1 28.3805 132.446 28.2305 132.866 28.2305C133.287 28.2305 133.641 28.3805 133.929 28.6723C134.218 28.9641 134.366 29.3142 134.366 29.731C134.366 30.1479 134.218 30.5147 133.921 30.8064Z" fill="#006438"/>
<path d="M134.086 46.6457V32.4987H136.946V38.1342H142.996V32.4987H145.856V46.6457H142.996V40.9269H136.946V46.6457H134.086Z" fill="#006438"/>
<path d="M154.197 46.8041C152.211 46.8041 150.53 46.1038 149.137 44.695C147.744 43.2861 147.051 41.5771 147.051 39.5764C147.051 37.5756 147.744 35.8667 149.137 34.4578C150.53 33.0489 152.219 32.3487 154.197 32.3487C155.393 32.3487 156.497 32.6154 157.511 33.1573C158.525 33.6992 159.349 34.4245 159.992 35.3415L157.84 37.1338C157.445 36.5252 156.934 36.0417 156.307 35.6749C155.681 35.3165 154.972 35.1331 154.197 35.1331C152.986 35.1331 151.972 35.5666 151.156 36.4252C150.332 37.2922 149.928 38.3343 149.928 39.5764C149.928 40.8185 150.34 41.8606 151.156 42.7276C151.98 43.5946 152.994 44.0197 154.197 44.0197C154.972 44.0197 155.673 43.8447 156.307 43.4862C156.934 43.1277 157.453 42.6442 157.84 42.0273L159.992 43.8197C159.349 44.7367 158.516 45.4619 157.511 46.0038C156.497 46.5373 155.393 46.8124 154.197 46.8124V46.8041Z" fill="#006438"/>
<path d="M163.734 37.5756H165.844C167.237 37.5756 168.391 38.0008 169.297 38.8595C170.204 39.7181 170.666 40.8019 170.666 42.119C170.666 43.4362 170.212 44.5199 169.297 45.3702C168.382 46.2206 167.228 46.6457 165.844 46.6457H160.882V32.4987H163.742V37.5756H163.734ZM163.734 43.928H165.819C166.462 43.928 166.965 43.7696 167.336 43.4612C167.707 43.1527 167.888 42.7026 167.888 42.119C167.888 41.5355 167.707 41.077 167.336 40.7518C166.965 40.4267 166.462 40.26 165.819 40.26H163.734V43.928Z" fill="#006438"/>
<path d="M171.622 46.6457V32.4987H174.482V39.5931L179.683 32.4987H183.013L177.77 39.6514L183.622 46.6457H180.037L174.482 39.9932V46.6457H171.622Z" fill="#006438"/>
<path d="M183.252 46.6457L190.126 32.3403L197 46.6457H193.983L192.821 44.1364H187.422L186.26 46.6457H183.243H183.252ZM188.551 41.7439H191.7L190.126 38.3593L188.551 41.7439Z" fill="#006438"/>
<path d="M92.9074 63.2353H90.0308V51.9394H88.3988L83.0001 63.2353H79.9834L86.7833 49.0883H92.9074V63.2353Z" fill="#006438"/>
<path d="M101.24 63.3937C99.254 63.3937 97.5725 62.6934 96.1796 61.2845C94.7866 59.8757 94.0943 58.1667 94.0943 56.166C94.0943 54.1652 94.7866 52.4562 96.1796 51.0474C97.5725 49.6385 99.2622 48.9382 101.24 48.9382C103.219 48.9382 104.892 49.6385 106.293 51.0474C107.694 52.4562 108.395 54.1652 108.395 56.166C108.395 58.1667 107.694 59.8757 106.293 61.2845C104.892 62.6934 103.21 63.3937 101.24 63.3937ZM98.199 59.3088C99.0232 60.1758 100.037 60.601 101.24 60.601C102.444 60.601 103.458 60.1675 104.274 59.3088C105.09 58.4418 105.493 57.3998 105.493 56.1576C105.493 54.9155 105.09 53.8734 104.274 53.0064C103.458 52.1394 102.452 51.7143 101.24 51.7143C100.029 51.7143 99.015 52.1478 98.199 53.0064C97.3747 53.8734 96.9708 54.9155 96.9708 56.1576C96.9708 57.3998 97.383 58.4418 98.199 59.3088Z" fill="#006438"/>
<path d="M109.54 63.2353V49.0883H114.684C115.854 49.0883 116.835 49.4884 117.626 50.2804C118.417 51.0724 118.821 52.0394 118.821 53.1732C118.821 54.2236 118.459 55.0739 117.742 55.7241C119.118 56.416 119.81 57.5331 119.81 59.0754C119.81 60.2675 119.39 61.2595 118.549 62.0515C117.709 62.8435 116.67 63.2353 115.434 63.2353H109.54ZM112.4 54.8905H114.387C114.89 54.8905 115.285 54.7404 115.59 54.4403C115.895 54.1402 116.044 53.7651 116.044 53.3149C116.044 52.8647 115.887 52.5063 115.582 52.1978C115.269 51.8894 114.873 51.7393 114.387 51.7393H112.4V54.8905ZM112.4 60.5843H115.252C115.78 60.5843 116.2 60.4342 116.513 60.1258C116.827 59.8173 116.983 59.4338 116.983 58.967C116.983 58.5002 116.827 58.1 116.513 57.7916C116.2 57.4831 115.78 57.3331 115.252 57.3331H112.4V60.5843Z" fill="#006438"/>
<path d="M120.997 49.0883H129.528V51.9394H123.857V54.7321H128.349V57.5248H123.857V60.3925H129.528V63.2436H120.997V49.0883Z" fill="#006438"/>
<path d="M142.065 60.4426H143.894V66.178H141.133V63.2269H131.086V49.08H133.946V60.4342H139.205V49.08H142.065V60.4426Z" fill="#006438"/>
<path d="M147.859 54.1652H149.969C151.362 54.1652 152.516 54.5904 153.423 55.449C154.329 56.3077 154.791 57.3914 154.791 58.7086C154.791 60.0257 154.337 61.1095 153.423 61.9598C152.508 62.8101 151.354 63.2353 149.969 63.2353H145.007V49.0883H147.867V54.1652H147.859ZM147.859 60.5176H149.944C150.587 60.5176 151.09 60.3592 151.461 60.0507C151.832 59.7423 152.013 59.2921 152.013 58.7086C152.013 58.125 151.832 57.6665 151.461 57.3414C151.09 57.0163 150.587 56.8495 149.944 56.8495H147.859V60.5176Z" fill="#006438"/>
<path d="M155.747 63.2353V49.0883H158.607V56.1826L163.808 49.0883H167.138L161.896 56.241L167.748 63.2353H164.162L158.607 56.5828V63.2353H155.747Z" fill="#006438"/>
<path d="M167.377 63.2353L174.251 48.9299L181.125 63.2353H178.108L176.946 60.726H171.547L170.385 63.2353H167.369H167.377ZM172.677 58.3334H175.825L174.251 54.9488L172.677 58.3334Z" fill="#006438"/>
<path d="M81.8956 79.8248V65.6779H86.363C87.7394 65.6779 88.8851 66.128 89.8 67.0284C90.7149 67.9287 91.1682 69.0458 91.1682 70.3796C91.1682 71.7135 90.7149 72.8222 89.8 73.7226C88.8851 74.6229 87.7394 75.0731 86.363 75.0731H84.7475V79.8165H81.8874L81.8956 79.8248ZM84.7557 72.3887H86.33C86.9482 72.3887 87.4427 72.197 87.8136 71.8135C88.1845 71.43 88.3741 70.9465 88.3741 70.3796C88.3741 69.8127 88.1845 69.3376 87.8136 68.9541C87.4427 68.5706 86.9399 68.3872 86.33 68.3872H84.7557V72.3887Z" fill="#006438"/>
<path d="M89.2807 79.8248L96.0807 65.6779H102.205V79.8248H99.3446V77.3156H93.4926L92.2892 79.8248H89.2725H89.2807ZM97.6962 68.5289L94.6383 74.923H99.3446V68.5289H97.6879H97.6962Z" fill="#006438"/>
<path d="M103.012 82.7676V77.0321H104.546L110.159 65.6779H117.305V77.0321H118.821V82.7676H116.06V79.8165H105.757V82.7676H102.996H103.012ZM107.579 77.0321H114.453V68.5206H111.758L107.579 77.0321Z" fill="#006438"/>
<path d="M119.003 79.8248L125.877 65.5195L132.751 79.8248H129.734L128.572 77.3156H123.173L122.011 79.8248H118.994H119.003ZM124.302 74.923H127.451L125.877 71.5384L124.302 74.923Z" fill="#006438"/>
</g>
</g>
<defs>
<clipPath id="clip0_74_5375">
<rect width="197" height="111" fill="white"/>
</clipPath>
</defs>
</svg>
