<svg width="197" height="111" viewBox="0 0 197 111" fill="none" xmlns="http://www.w3.org/2000/svg">
<g clip-path="url(#clip0_74_7151)">
<path d="M14.022 25.918V33.0123L21.028 44.8417V59.0054L46.7358 73.1857L56.0744 68.4589L14.022 25.918ZM30.3748 51.9111V47.1843L37.389 54.2953L30.3748 51.9111Z" fill="white"/>
<path d="M56.198 76.2452L35.0482 97.6366L8.65625 70.9515L18.6872 61.3646L32.7074 70.8265L35.0482 89.7253L37.3808 73.1857L56.198 76.2452Z" fill="white"/>
<path d="M14.022 42.4658L9.34861 68.4589L18.6954 56.6462V44.8334L14.022 42.4658Z" fill="white"/>
<path d="M44.047 16.4727L51.0612 23.567H63.0868V72.6104L54.1851 81.6138L35.0464 100.971L7.00598 72.6104V23.567H18.6936V16.4727H0V75.5532L17.7705 93.5266L35.0464 111L59.1387 86.6323L70.0928 75.5532V16.4727H44.047Z" fill="white"/>
<path d="M32.714 24.3675V40.0984L39.72 47.1844V7.0193L32.7057 0V24.3675H32.714Z" fill="white"/>
<path d="M30.3732 11.7461L23.3672 4.72677V30.6532L30.3732 37.7308V11.7461Z" fill="white"/>
<path d="M42.0608 21.1163V49.5436L49.0668 44.8252V28.2856L42.0608 21.1163Z" fill="white"/>
<path d="M84.0973 46.6457L85.8282 43.1611L80.413 32.4987H83.7264L87.4849 39.8682L91.1527 32.4987H94.3672L87.3118 46.6457H84.0973Z" fill="white"/>
<path d="M94.9525 46.6457V32.4987H97.8125V39.5931L103.013 32.4987H106.343L101.101 39.6514L106.953 46.6457H103.368L97.8125 39.9932V46.6457H94.9525Z" fill="white"/>
<path d="M107.481 46.6457V32.4987H111.948C113.325 32.4987 114.47 32.9489 115.385 33.8492C116.3 34.7496 116.753 35.8667 116.753 37.2005C116.753 38.5343 116.3 39.6431 115.385 40.5434C114.47 41.4438 113.325 41.8939 111.948 41.8939H110.333V46.6374H107.473L107.481 46.6457ZM110.341 39.2096H111.915C112.533 39.2096 113.028 39.0179 113.399 38.6344C113.77 38.2509 113.959 37.7674 113.959 37.2005C113.959 36.6336 113.77 36.1584 113.399 35.775C113.028 35.3915 112.525 35.2081 111.915 35.2081H110.341V39.2096Z" fill="white"/>
<path d="M114.866 46.6457L121.74 32.3403L128.614 46.6457H125.597L124.435 44.1364H119.037L117.874 46.6457H114.858H114.866ZM120.166 41.7439H123.314L121.74 38.3593L120.166 41.7439Z" fill="white"/>
<path d="M129.389 30.8064C129.092 31.0982 128.746 31.2483 128.334 31.2483C127.922 31.2483 127.576 31.1065 127.279 30.8064C126.982 30.5147 126.834 30.1562 126.834 29.731C126.834 29.3059 126.982 28.9641 127.271 28.6723C127.559 28.3805 127.914 28.2305 128.334 28.2305C128.754 28.2305 129.109 28.3805 129.397 28.6723C129.686 28.9641 129.834 29.3142 129.834 29.731C129.834 30.1479 129.686 30.5147 129.389 30.8064ZM129.166 46.6457V32.4987H132.026V46.6457H129.166ZM133.922 30.8064C133.625 31.0982 133.271 31.2483 132.867 31.2483C132.463 31.2483 132.109 31.1065 131.812 30.8064C131.515 30.5147 131.367 30.1562 131.367 29.731C131.367 29.3059 131.507 28.9641 131.804 28.6723C132.101 28.3805 132.447 28.2305 132.867 28.2305C133.288 28.2305 133.642 28.3805 133.93 28.6723C134.219 28.9641 134.367 29.3142 134.367 29.731C134.367 30.1479 134.219 30.5147 133.922 30.8064Z" fill="white"/>
<path d="M134.087 46.6457V32.4987H136.947V38.1342H142.997V32.4987H145.857V46.6457H142.997V40.9269H136.947V46.6457H134.087Z" fill="white"/>
<path d="M154.198 46.8041C152.212 46.8041 150.531 46.1038 149.138 44.695C147.745 43.2861 147.052 41.5771 147.052 39.5764C147.052 37.5756 147.745 35.8667 149.138 34.4578C150.531 33.0489 152.22 32.3487 154.198 32.3487C155.393 32.3487 156.498 32.6154 157.512 33.1573C158.526 33.6992 159.35 34.4245 159.993 35.3415L157.841 37.1338C157.446 36.5252 156.935 36.0417 156.308 35.6749C155.682 35.3165 154.973 35.1331 154.198 35.1331C152.987 35.1331 151.973 35.5666 151.157 36.4252C150.333 37.2922 149.929 38.3343 149.929 39.5764C149.929 40.8185 150.341 41.8606 151.157 42.7276C151.981 43.5946 152.995 44.0197 154.198 44.0197C154.973 44.0197 155.674 43.8447 156.308 43.4862C156.935 43.1277 157.454 42.6442 157.841 42.0273L159.993 43.8197C159.35 44.7367 158.517 45.4619 157.512 46.0038C156.498 46.5373 155.393 46.8124 154.198 46.8124V46.8041Z" fill="white"/>
<path d="M163.735 37.5756H165.845C167.238 37.5756 168.392 38.0008 169.298 38.8595C170.205 39.7181 170.667 40.8019 170.667 42.119C170.667 43.4362 170.213 44.5199 169.298 45.3702C168.383 46.2206 167.229 46.6457 165.845 46.6457H160.883V32.4987H163.743V37.5756H163.735ZM163.735 43.928H165.82C166.463 43.928 166.966 43.7696 167.337 43.4612C167.708 43.1527 167.889 42.7026 167.889 42.119C167.889 41.5355 167.708 41.077 167.337 40.7518C166.966 40.4267 166.463 40.26 165.82 40.26H163.735V43.928Z" fill="white"/>
<path d="M171.623 46.6457V32.4987H174.483V39.5931L179.684 32.4987H183.014L177.771 39.6514L183.623 46.6457H180.038L174.483 39.9932V46.6457H171.623Z" fill="white"/>
<path d="M183.253 46.6457L190.127 32.3403L197.001 46.6457H193.984L192.822 44.1364H187.423L186.261 46.6457H183.244H183.253ZM188.552 41.7439H191.701L190.127 38.3593L188.552 41.7439Z" fill="white"/>
<path d="M92.9084 63.2353H90.0318V51.9394H88.3998L83.0011 63.2353H79.9844L86.7843 49.0883H92.9084V63.2353Z" fill="white"/>
<path d="M101.241 63.3937C99.255 63.3937 97.5735 62.6934 96.1806 61.2845C94.7876 59.8757 94.0953 58.1667 94.0953 56.166C94.0953 54.1652 94.7876 52.4562 96.1806 51.0474C97.5735 49.6385 99.2632 48.9382 101.241 48.9382C103.22 48.9382 104.893 49.6385 106.294 51.0474C107.695 52.4562 108.396 54.1652 108.396 56.166C108.396 58.1667 107.695 59.8757 106.294 61.2845C104.893 62.6934 103.211 63.3937 101.241 63.3937ZM98.1999 59.3088C99.0242 60.1758 100.038 60.601 101.241 60.601C102.445 60.601 103.459 60.1675 104.275 59.3088C105.091 58.4418 105.494 57.3998 105.494 56.1576C105.494 54.9155 105.091 53.8734 104.275 53.0064C103.459 52.1394 102.453 51.7143 101.241 51.7143C100.03 51.7143 99.0159 52.1478 98.1999 53.0064C97.3757 53.8734 96.9718 54.9155 96.9718 56.1576C96.9718 57.3998 97.3839 58.4418 98.1999 59.3088Z" fill="white"/>
<path d="M109.541 63.2353V49.0883H114.685C115.855 49.0883 116.836 49.4884 117.627 50.2804C118.418 51.0724 118.822 52.0394 118.822 53.1732C118.822 54.2236 118.46 55.0739 117.743 55.7241C119.119 56.416 119.811 57.5331 119.811 59.0754C119.811 60.2675 119.391 61.2595 118.55 62.0515C117.71 62.8435 116.671 63.2353 115.435 63.2353H109.541ZM112.401 54.8905H114.388C114.891 54.8905 115.286 54.7404 115.591 54.4403C115.896 54.1402 116.045 53.7651 116.045 53.3149C116.045 52.8647 115.888 52.5063 115.583 52.1978C115.27 51.8894 114.874 51.7393 114.388 51.7393H112.401V54.8905ZM112.401 60.5843H115.253C115.781 60.5843 116.201 60.4342 116.514 60.1258C116.828 59.8173 116.984 59.4338 116.984 58.967C116.984 58.5002 116.828 58.1 116.514 57.7916C116.201 57.4831 115.781 57.3331 115.253 57.3331H112.401V60.5843Z" fill="white"/>
<path d="M120.998 49.0883H129.529V51.9394H123.858V54.7321H128.35V57.5248H123.858V60.3925H129.529V63.2436H120.998V49.0883Z" fill="white"/>
<path d="M142.066 60.4426H143.895V66.178H141.134V63.2269H131.087V49.08H133.947V60.4342H139.206V49.08H142.066V60.4426Z" fill="white"/>
<path d="M147.86 54.1652H149.97C151.363 54.1652 152.517 54.5904 153.424 55.449C154.33 56.3077 154.792 57.3914 154.792 58.7086C154.792 60.0257 154.338 61.1095 153.424 61.9598C152.509 62.8101 151.355 63.2353 149.97 63.2353H145.008V49.0883H147.868V54.1652H147.86ZM147.86 60.5176H149.945C150.588 60.5176 151.091 60.3592 151.462 60.0507C151.833 59.7423 152.014 59.2921 152.014 58.7086C152.014 58.125 151.833 57.6665 151.462 57.3414C151.091 57.0163 150.588 56.8495 149.945 56.8495H147.86V60.5176Z" fill="white"/>
<path d="M155.748 63.2353V49.0883H158.608V56.1826L163.809 49.0883H167.139L161.897 56.241L167.749 63.2353H164.163L158.608 56.5828V63.2353H155.748Z" fill="white"/>
<path d="M167.378 63.2353L174.252 48.9299L181.126 63.2353H178.109L176.947 60.726H171.548L170.386 63.2353H167.37H167.378ZM172.678 58.3334H175.826L174.252 54.9488L172.678 58.3334Z" fill="white"/>
<path d="M81.8966 79.8248V65.6779H86.3639C87.7404 65.6779 88.8861 66.128 89.801 67.0284C90.7159 67.9287 91.1692 69.0458 91.1692 70.3796C91.1692 71.7135 90.7159 72.8222 89.801 73.7226C88.8861 74.6229 87.7404 75.0731 86.3639 75.0731H84.7484V79.8165H81.8884L81.8966 79.8248ZM84.7567 72.3887H86.331C86.9492 72.3887 87.4437 72.197 87.8146 71.8135C88.1855 71.43 88.3751 70.9465 88.3751 70.3796C88.3751 69.8127 88.1855 69.3376 87.8146 68.9541C87.4437 68.5706 86.9409 68.3872 86.331 68.3872H84.7567V72.3887Z" fill="white"/>
<path d="M89.2817 79.8248L96.0817 65.6779H102.206V79.8248H99.3456V77.3156H93.4936L92.2902 79.8248H89.2735H89.2817ZM97.6972 68.5289L94.6392 74.923H99.3456V68.5289H97.6889H97.6972Z" fill="white"/>
<path d="M103.013 82.7676V77.0321H104.547L110.16 65.6779H117.306V77.0321H118.822V82.7676H116.061V79.8165H105.758V82.7676H102.997H103.013ZM107.58 77.0321H114.454V68.5206H111.759L107.58 77.0321Z" fill="white"/>
<path d="M119.004 79.8248L125.878 65.5195L132.752 79.8248H129.735L128.573 77.3156H123.174L122.012 79.8248H118.995H119.004ZM124.303 74.923H127.452L125.878 71.5384L124.303 74.923Z" fill="white"/>
</g>
<defs>
<clipPath id="clip0_74_7151">
<rect width="197" height="111" fill="white"/>
</clipPath>
</defs>
</svg>
