<svg width="214" height="80" viewBox="0 0 214 80" fill="none" xmlns="http://www.w3.org/2000/svg">
<g id="logo (3) 1">
<g id="Group">
<path id="Vector" d="M211.887 41.6704L182.825 31.8242L137.031 77.7143H175.78L211.887 41.6704Z" fill="#FCC900"/>
<path id="Vector_2" d="M175.78 2.90112L211.887 38.9451L181.328 25.8462L175.604 29.011C170.849 31.6484 164.86 30.7693 160.985 26.9011L137.031 2.90112" fill="#FCC900"/>
<path id="Vector_3" d="M14.179 20.0439H2.73047V60.6593H14.179V20.0439Z" fill="#008556"/>
<path id="Vector_4" d="M83.4866 20.0439H72.0381V60.6593H83.4866V20.0439Z" fill="#008556"/>
<path id="Vector_5" d="M52.9284 35.8681C60.3259 35.8681 65.8741 40 65.8741 48.1758C65.8741 54.945 60.9424 60.5714 52.9284 60.5714H21.665V20.0439H60.7663V29.978H33.0255V35.8681H52.9284ZM51.5194 51.2527C53.5449 51.2527 54.6897 50.3736 54.6897 48.2637C54.6897 46.1538 53.5449 45.2747 51.5194 45.2747H33.0255V51.2527H51.5194Z" fill="#008556"/>
<path id="Vector_6" d="M127.167 45.011C126.287 49.1428 120.827 51.6044 113.958 51.6044C105.503 51.6044 100.748 47.1208 100.748 40.3516C100.748 33.5824 105.503 29.0989 113.958 29.0989C120.739 29.0989 126.199 31.4725 127.079 35.6923H138.176C137.119 25.6703 128.136 19.1648 113.958 19.1648C98.8102 19.1648 89.6514 27.6044 89.6514 40.3516C89.6514 53.0989 98.8102 61.5384 113.958 61.5384C128.136 61.5384 137.119 55.1208 138.176 45.011H127.167Z" fill="#008556"/>
</g>
</g>
</svg>
